<svg width="66" height="55" viewBox="0 0 66 55" fill="none" xmlns="http://www.w3.org/2000/svg">
<path d="M34.8788 4.37454C32.6532 2.6553 30.1857 0.898682 27.3795 0.898682C22.1059 0.898682 19.0336 6.67933 16.675 11.4259C13.8809 17.0322 10.4579 22.3269 6.49055 27.1732C3.78114 30.4871 0.684685 33.8758 0.152481 38.1365C-0.670016 44.6273 5.09956 50.4453 11.4013 52.0026C18.1023 53.6595 24.8153 51.4544 31.5888 52.8996C38.7977 54.4319 46.2728 55.466 53.4092 52.8871C61.2471 50.0591 67.5851 41.1639 64.6217 33.3276C63.4968 30.3376 61.235 27.9456 58.9852 25.6782C51.4134 18.0662 43.3578 10.9525 34.8788 4.387V4.37454Z" fill="#0095B8"/>
</svg>
