<svg width="57" height="97" viewBox="0 0 57 97" fill="none" xmlns="http://www.w3.org/2000/svg">
<path d="M37.2086 86.8989C38.371 84.2756 37.4481 81.2284 36.5092 78.5266C29.7836 59.0193 23.0481 39.5148 16.3224 20.0075C15.6946 18.1855 14.8782 16.1621 13.129 15.4928C10.0147 14.2993 7.348 18.3022 6.69196 21.7067C5.07989 30.0821 7.33723 38.6675 9.92279 46.7326C12.5637 54.931 15.5787 62.99 18.9599 70.88C21.4958 76.7975 23.8916 85.0236 29.4905 88.6775C31.2596 89.8311 33.6611 90.2174 35.44 89.0466C36.2223 88.5345 36.8325 87.763 37.2184 86.8961L37.2086 86.8989Z" fill="#FF6D6D"/>
<path d="M22.6485 3.64745C21.6787 4.54273 21.324 5.944 21.1309 7.27773C20.3278 12.7387 21.3453 18.2756 22.6362 23.6065C25.4561 35.1911 29.6416 46.3532 34.37 57.2109C38.557 66.8277 42.4824 78.533 48.522 87.002C48.9861 87.6577 49.6327 88.3678 50.4161 88.2609C50.9147 88.1929 51.3092 87.8031 51.6371 87.4004C54.6197 83.6921 53.684 78.2276 52.5867 73.5658C49.9605 62.4053 47.3343 51.2448 44.4236 40.1656C41.3414 28.4217 37.8246 16.5037 30.8253 6.76416C28.8696 4.04188 25.1215 1.35274 22.6459 3.63752L22.6485 3.64745Z" fill="#FF6D6D"/>
</svg>
